<svg width="16" height="16" viewBox="0 0 16 16" fill="none" xmlns="http://www.w3.org/2000/svg">
<g id="Frame">
<path id="Vector" d="M8 6C7.33696 6 6.70107 6.26339 6.23223 6.73223C5.76339 7.20107 5.5 7.83696 5.5 8.5C5.5 9.16304 5.76339 9.79893 6.23223 10.2678C6.70107 10.7366 7.33696 11 8 11C8.66304 11 9.29893 10.7366 9.76777 10.2678C10.2366 9.79893 10.5 9.16304 10.5 8.5C10.5 7.83696 10.2366 7.20107 9.76777 6.73223C9.29893 6.26339 8.66304 6 8 6Z" fill="white"/>
<path id="Vector_2" fill-rule="evenodd" clip-rule="evenodd" d="M6.22933 2.04727C7.40893 1.98392 8.59107 1.98392 9.77067 2.04727C10.4153 2.08194 10.9907 2.43727 11.3253 2.97394L11.8727 3.85194C12.0327 4.10727 12.3027 4.28061 12.6127 4.32527C12.87 4.36127 13.126 4.40061 13.3807 4.44327C14.3353 4.60261 15 5.43861 15 6.38261V11.9999C15 12.5304 14.7893 13.0391 14.4142 13.4142C14.0391 13.7892 13.5304 13.9999 13 13.9999H3C2.46957 13.9999 1.96086 13.7892 1.58579 13.4142C1.21071 13.0391 1 12.5304 1 11.9999V6.38261C1 5.43861 1.66467 4.60261 2.61933 4.44327C2.874 4.40061 3.13 4.36127 3.38667 4.32461C3.53708 4.30448 3.68126 4.25167 3.80909 4.16991C3.93693 4.08814 4.04532 3.97938 4.12667 3.85127L4.67467 2.97461C4.84033 2.70664 5.06811 2.48253 5.33872 2.32123C5.60934 2.15993 5.91482 2.06552 6.22933 2.04727ZM4.5 8.49994C4.5 7.57168 4.86875 6.68145 5.52513 6.02507C6.1815 5.36869 7.07174 4.99994 8 4.99994C8.92826 4.99994 9.8185 5.36869 10.4749 6.02507C11.1313 6.68145 11.5 7.57168 11.5 8.49994C11.5 9.4282 11.1313 10.3184 10.4749 10.9748C9.8185 11.6312 8.92826 11.9999 8 11.9999C7.07174 11.9999 6.1815 11.6312 5.52513 10.9748C4.86875 10.3184 4.5 9.4282 4.5 8.49994ZM12.5 7.49994C12.6326 7.49994 12.7598 7.44726 12.8536 7.35349C12.9473 7.25973 13 7.13255 13 6.99994C13 6.86733 12.9473 6.74016 12.8536 6.64639C12.7598 6.55262 12.6326 6.49994 12.5 6.49994C12.3674 6.49994 12.2402 6.55262 12.1464 6.64639C12.0527 6.74016 12 6.86733 12 6.99994C12 7.13255 12.0527 7.25973 12.1464 7.35349C12.2402 7.44726 12.3674 7.49994 12.5 7.49994Z" fill="white"/>
</g>
</svg>
