<svg width="20" height="20" viewBox="0 0 20 20" fill="none" xmlns="http://www.w3.org/2000/svg">
<g id="Frame">
<path id="Vector" d="M9.55861 3.20093C9.6758 3.08389 9.83465 3.01814 10.0003 3.01814C10.1659 3.01814 10.3248 3.08389 10.4419 3.20093L17.6836 10.4426C17.7413 10.5023 17.8103 10.5498 17.8865 10.5826C17.9628 10.6153 18.0448 10.6325 18.1278 10.6332C18.2108 10.6338 18.2931 10.618 18.3699 10.5865C18.4467 10.5551 18.5165 10.5086 18.5751 10.4499C18.6338 10.3912 18.6801 10.3214 18.7115 10.2446C18.7429 10.1678 18.7587 10.0854 18.7579 10.0025C18.7572 9.91948 18.7399 9.83747 18.7071 9.76123C18.6743 9.685 18.6267 9.61606 18.5669 9.55843L11.3261 2.31676C11.152 2.14265 10.9453 2.00454 10.7178 1.91031C10.4903 1.81608 10.2465 1.76758 10.0003 1.76758C9.75405 1.76758 9.51023 1.81608 9.28274 1.91031C9.05525 2.00454 8.84855 2.14265 8.67444 2.31676L1.43278 9.55843C1.37311 9.61611 1.32553 9.6851 1.29281 9.76137C1.26009 9.83763 1.24289 9.91965 1.24221 10.0026C1.24153 10.0856 1.25738 10.1679 1.28884 10.2447C1.3203 10.3215 1.36674 10.3913 1.42545 10.4499C1.48416 10.5086 1.55397 10.555 1.63079 10.5863C1.70762 10.6177 1.78992 10.6335 1.87291 10.6327C1.9559 10.632 2.0379 10.6147 2.11414 10.5819C2.19038 10.5491 2.25932 10.5015 2.31694 10.4418L9.55861 3.20093Z" fill="url(#paint0_linear_330_20511)"/>
<path id="Vector_2" d="M10 4.52661L16.7992 11.3258C16.8242 11.3508 16.8492 11.3741 16.875 11.3974V16.5624C16.875 17.4249 16.175 18.1249 15.3125 18.1249H12.5C12.3342 18.1249 12.1753 18.0591 12.0581 17.9419C11.9408 17.8247 11.875 17.6657 11.875 17.4999V13.7499C11.875 13.5842 11.8092 13.4252 11.6919 13.308C11.5747 13.1908 11.4158 13.1249 11.25 13.1249H8.75C8.58424 13.1249 8.42527 13.1908 8.30806 13.308C8.19085 13.4252 8.125 13.5842 8.125 13.7499V17.4999C8.125 17.6657 8.05915 17.8247 7.94194 17.9419C7.82473 18.0591 7.66576 18.1249 7.5 18.1249H4.6875C4.2731 18.1249 3.87567 17.9603 3.58265 17.6673C3.28962 17.3743 3.125 16.9768 3.125 16.5624V11.3974C3.15093 11.3743 3.17621 11.3504 3.20083 11.3258L10 4.52661Z" fill="url(#paint1_linear_330_20511)"/>
</g>
<defs>
<linearGradient id="paint0_linear_330_20511" x1="2.73103" y1="1.98922" x2="7.44097" y2="14.2748" gradientUnits="userSpaceOnUse">
<stop stop-color="#4D34E6"/>
<stop offset="1" stop-color="#8C12B7"/>
</linearGradient>
<linearGradient id="paint1_linear_330_20511" x1="4.29375" y1="4.86657" x2="14.6647" y2="18.7116" gradientUnits="userSpaceOnUse">
<stop stop-color="#4D34E6"/>
<stop offset="1" stop-color="#8C12B7"/>
</linearGradient>
</defs>
</svg>
