<svg width="20" height="20" viewBox="0 0 20 20" fill="none" xmlns="http://www.w3.org/2000/svg">
<g id="Frame">
<path id="Vector" d="M16.25 18.7499C16.913 18.7499 17.5489 18.4865 18.0178 18.0177C18.4866 17.5488 18.75 16.9129 18.75 16.2499V9.43823L13.0175 12.7899L15.9217 14.3532C16.0676 14.4319 16.1764 14.5654 16.224 14.7242C16.2716 14.8831 16.2541 15.0543 16.1754 15.2003C16.0967 15.3463 15.9633 15.455 15.8044 15.5026C15.6456 15.5502 15.4743 15.5327 15.3283 15.4541L10.5925 12.9041C10.4104 12.806 10.2068 12.7547 10 12.7547C9.79319 12.7547 9.5896 12.806 9.4075 12.9041L4.67167 15.4541C4.5261 15.5294 4.35675 15.5445 4.20013 15.4962C4.0435 15.4479 3.91213 15.34 3.83431 15.1957C3.7565 15.0514 3.73847 14.8824 3.78411 14.725C3.82976 14.5675 3.93542 14.4343 4.07833 14.3541L6.9825 12.7899L1.25 9.43823V16.2499C1.25 16.9129 1.51339 17.5488 1.98223 18.0177C2.45107 18.4865 3.08696 18.7499 3.75 18.7499H16.25Z" fill="url(#paint0_linear_330_20520)"/>
<path id="Vector_2" d="M1.25 7.99083V7.36999C1.24994 6.91847 1.37216 6.47535 1.60369 6.0877C1.83522 5.70006 2.16742 5.38235 2.565 5.16833L8.815 1.80333C9.17921 1.60727 9.58637 1.50464 10 1.50464C10.4136 1.50464 10.8208 1.60727 11.185 1.80333L17.435 5.16833C17.8326 5.38235 18.1648 5.70006 18.3963 6.0877C18.6278 6.47535 18.7501 6.91847 18.75 7.36999V7.99083L11.7283 12.0958L11.185 11.8033C10.8208 11.6073 10.4136 11.5046 10 11.5046C9.58637 11.5046 9.17921 11.6073 8.815 11.8033L8.27167 12.0958L1.25 7.99083Z" fill="url(#paint1_linear_330_20520)"/>
</g>
<defs>
<linearGradient id="paint0_linear_330_20520" x1="2.7375" y1="9.67102" x2="7.86886" y2="22.4032" gradientUnits="userSpaceOnUse">
<stop stop-color="#EC8154"/>
<stop offset="1" stop-color="#E21D1D"/>
</linearGradient>
<linearGradient id="paint1_linear_330_20520" x1="2.7375" y1="1.76942" x2="9.11426" y2="15.6803" gradientUnits="userSpaceOnUse">
<stop stop-color="#EC8154"/>
<stop offset="1" stop-color="#E21D1D"/>
</linearGradient>
</defs>
</svg>
