<svg width="19" height="19" viewBox="0 0 19 19" fill="none" xmlns="http://www.w3.org/2000/svg">
<g id="Frame">
<path id="Vector" d="M9.61857 6.4186H10.7349M9.61857 8.65115H10.7349M5.15346 10.8837H10.7349M5.15346 13.1163H10.7349M12.9674 6.4186H15.479C15.9412 6.4186 16.3162 6.79367 16.3162 7.25581V14.2326C16.3162 14.6766 16.1398 15.1025 15.8258 15.4165C15.5118 15.7306 15.0859 15.907 14.6418 15.907M12.9674 6.4186V14.2326C12.9674 14.6766 13.1438 15.1025 13.4578 15.4165C13.7719 15.7306 14.1977 15.907 14.6418 15.907M12.9674 6.4186V4.46511C12.9674 4.00297 12.5923 3.6279 12.1302 3.6279H3.75811C3.29597 3.6279 2.9209 4.00297 2.9209 4.46511V14.2326C2.9209 14.6766 3.09731 15.1025 3.41132 15.4165C3.72534 15.7306 4.15123 15.907 4.59532 15.907H14.6418M5.15346 6.4186H7.38601V8.65115H5.15346V6.4186Z" stroke="#585858" stroke-width="1.11628" stroke-linecap="round" stroke-linejoin="round"/>
</g>
</svg>
