<svg width="18" height="19" viewBox="0 0 18 19" fill="none" xmlns="http://www.w3.org/2000/svg">
<g id="Frame">
<path id="Vector" d="M10.1165 16.4651V10.8837C10.1165 10.7357 10.1753 10.5937 10.2799 10.4891C10.3846 10.3844 10.5266 10.3256 10.6746 10.3256H12.9072C13.0552 10.3256 13.1971 10.3844 13.3018 10.4891C13.4065 10.5937 13.4653 10.7357 13.4653 10.8837V16.4651M10.1165 16.4651H1.82622M10.1165 16.4651H13.4653M13.4653 16.4651H16.1741M15.1397 16.4651V7.7946M15.1397 7.7946C14.6933 8.05216 14.1715 8.14738 13.6628 8.0641C13.1542 7.98081 12.69 7.72416 12.349 7.33767C11.9397 7.80055 11.3414 8.09302 10.6746 8.09302C10.3578 8.09332 10.0445 8.02604 9.7558 7.89566C9.46705 7.76527 9.20945 7.57479 9.00017 7.33693C8.59087 7.80055 7.99255 8.09302 7.32576 8.09302C7.00894 8.09332 6.6957 8.02604 6.40696 7.89566C6.11821 7.76527 5.86061 7.57479 5.65134 7.33693C5.31044 7.72354 4.84631 7.98033 4.33766 8.06375C3.82901 8.14717 3.30717 8.05208 2.86064 7.7946M15.1397 7.7946C15.4363 7.62337 15.6896 7.38618 15.8799 7.1014C16.0702 6.81662 16.1924 6.49187 16.237 6.15229C16.2817 5.81272 16.2477 5.46741 16.1375 5.1431C16.0274 4.81879 15.8441 4.52417 15.6018 4.28204L14.7163 3.39721C14.5071 3.1878 14.2234 3.07002 13.9274 3.06976H4.07217C3.77633 3.06983 3.4926 3.18733 3.28334 3.39646L2.3985 4.28204C2.15682 4.52445 1.97403 4.81912 1.86423 5.14334C1.75442 5.46756 1.72054 5.81266 1.7652 6.15205C1.80985 6.49143 1.93184 6.81602 2.12176 7.10081C2.31169 7.38559 2.56448 7.62295 2.86064 7.7946M2.86064 16.4651V7.7946M5.0932 14.2326H7.8839C8.03192 14.2326 8.17389 14.1738 8.27856 14.0691C8.38323 13.9644 8.44204 13.8224 8.44204 13.6744V10.8837C8.44204 10.7357 8.38323 10.5937 8.27856 10.4891C8.17389 10.3844 8.03192 10.3256 7.8839 10.3256H5.0932C4.94517 10.3256 4.80321 10.3844 4.69853 10.4891C4.59386 10.5937 4.53506 10.7357 4.53506 10.8837V13.6744C4.53506 13.9825 4.7851 14.2326 5.0932 14.2326Z" stroke="#585858" stroke-width="1.11628" stroke-linecap="round" stroke-linejoin="round"/>
</g>
</svg>
