<svg width="19" height="19" viewBox="0 0 19 19" fill="none" xmlns="http://www.w3.org/2000/svg">
<g id="Frame">
<path id="Vector" d="M12.1721 5.30233C12.1721 6.04246 11.8781 6.75229 11.3548 7.27565C10.8314 7.799 10.1216 8.09302 9.38143 8.09302C8.64129 8.09302 7.93147 7.799 7.40811 7.27565C6.88475 6.75229 6.59073 6.04246 6.59073 5.30233C6.59073 4.56219 6.88475 3.85236 7.40811 3.329C7.93147 2.80565 8.64129 2.51163 9.38143 2.51163C10.1216 2.51163 10.8314 2.80565 11.3548 3.329C11.8781 3.85236 12.1721 4.56219 12.1721 5.30233ZM3.80078 15.8087C3.8247 14.3444 4.42317 12.9482 5.46715 11.9212C6.51112 10.8941 7.91694 10.3185 9.38143 10.3185C10.8459 10.3185 12.2517 10.8941 13.2957 11.9212C14.3397 12.9482 14.9382 14.3444 14.9621 15.8087C13.2113 16.6115 11.3075 17.0259 9.38143 17.0233C7.38999 17.0233 5.49976 16.5887 3.80078 15.8087Z" stroke="#585858" stroke-width="1.11628" stroke-linecap="round" stroke-linejoin="round"/>
</g>
</svg>
