<svg width="19" height="19" viewBox="0 0 19 19" fill="none" xmlns="http://www.w3.org/2000/svg">
<g id="icon / iconoir / megaphone">
<path id="Vector" d="M10.6792 11.2558H5.46991C3.8259 11.2558 2.49316 9.92305 2.49316 8.27907C2.49316 6.63506 3.8259 5.30233 5.46991 5.30233H10.6792M10.6792 11.2558V5.30233V11.2558ZM10.6792 11.2558L15.2205 13.8508C15.5181 14.0209 15.8885 13.806 15.8885 13.4631V3.095C15.8885 2.75216 15.5181 2.53722 15.2205 2.70732L10.6792 5.30233V11.2558Z" stroke="#585858" stroke-width="1.11628"/>
<path id="Vector_2" d="M6.03319 15.2001L5.46973 11.2558H8.44647L8.95043 14.7833C9.07724 15.671 8.38842 16.4651 7.4918 16.4651C6.75855 16.4651 6.13689 15.9259 6.03319 15.2001Z" stroke="#585858" stroke-width="1.11628"/>
</g>
</svg>
