<svg width="13" height="13" viewBox="0 0 13 13" fill="none" xmlns="http://www.w3.org/2000/svg">
<path fill-rule="evenodd" clip-rule="evenodd" d="M2.68556 11.3893C2.88138 11.4245 3.07996 11.4421 3.27892 11.4419C3.90774 11.4427 4.52399 11.2657 5.05653 10.9313C5.44053 11.0216 5.84239 11.0698 6.25567 11.0698C8.89604 11.0698 11.0929 9.10015 11.0929 6.60464C11.0929 4.10914 8.89604 2.13953 6.25567 2.13953C3.61529 2.13953 1.41846 4.10914 1.41846 6.60464C1.41846 7.79981 1.92698 8.88036 2.74509 9.67664C2.86019 9.78877 2.88252 9.88898 2.87111 9.94604C2.8098 10.2547 2.6708 10.5425 2.46726 10.7825C2.42501 10.8324 2.39664 10.8925 2.38502 10.9569C2.3734 11.0212 2.37893 11.0875 2.40106 11.149C2.4232 11.2105 2.46114 11.2651 2.51109 11.3073C2.56103 11.3495 2.62121 11.3777 2.68556 11.3893ZM4.3952 6.0465C4.24717 6.0465 4.10521 6.10531 4.00054 6.20998C3.89587 6.31465 3.83706 6.45661 3.83706 6.60464C3.83706 6.75267 3.89587 6.89464 4.00054 6.99931C4.10521 7.10398 4.24717 7.16278 4.3952 7.16278C4.54323 7.16278 4.68519 7.10398 4.78987 6.99931C4.89454 6.89464 4.95334 6.75267 4.95334 6.60464C4.95334 6.45661 4.89454 6.31465 4.78987 6.20998C4.68519 6.10531 4.54323 6.0465 4.3952 6.0465ZM5.69753 6.60464C5.69753 6.45661 5.75633 6.31465 5.861 6.20998C5.96567 6.10531 6.10764 6.0465 6.25567 6.0465C6.40369 6.0465 6.54566 6.10531 6.65033 6.20998C6.755 6.31465 6.81381 6.45661 6.81381 6.60464C6.81381 6.75267 6.755 6.89464 6.65033 6.99931C6.54566 7.10398 6.40369 7.16278 6.25567 7.16278C6.10764 7.16278 5.96567 7.10398 5.861 6.99931C5.75633 6.89464 5.69753 6.75267 5.69753 6.60464ZM8.11613 6.0465C7.9681 6.0465 7.82614 6.10531 7.72147 6.20998C7.6168 6.31465 7.55799 6.45661 7.55799 6.60464C7.55799 6.75267 7.6168 6.89464 7.72147 6.99931C7.82614 7.10398 7.9681 7.16278 8.11613 7.16278C8.26416 7.16278 8.40612 7.10398 8.5108 6.99931C8.61547 6.89464 8.67427 6.75267 8.67427 6.60464C8.67427 6.45661 8.61547 6.31465 8.5108 6.20998C8.40612 6.10531 8.26416 6.0465 8.11613 6.0465Z" fill="url(#paint0_linear_1052_145)"/>
<defs>
<linearGradient id="paint0_linear_1052_145" x1="2.24078" y1="2.37208" x2="9.27688" y2="12.0331" gradientUnits="userSpaceOnUse">
<stop stop-color="#2131F0"/>
<stop offset="1" stop-color="#0A82FE"/>
</linearGradient>
</defs>
</svg>
