<svg width="12" height="3" viewBox="0 0 12 3" fill="none" xmlns="http://www.w3.org/2000/svg">
<path fill-rule="evenodd" clip-rule="evenodd" d="M0.534912 1.86045C0.534912 1.56439 0.65252 1.28046 0.861863 1.07112C1.07121 0.861779 1.35514 0.744171 1.65119 0.744171C1.94725 0.744171 2.23118 0.861779 2.44052 1.07112C2.64986 1.28046 2.76747 1.56439 2.76747 1.86045C2.76747 2.15651 2.64986 2.44044 2.44052 2.64978C2.23118 2.85912 1.94725 2.97673 1.65119 2.97673C1.35514 2.97673 1.07121 2.85912 0.861863 2.64978C0.65252 2.44044 0.534912 2.15651 0.534912 1.86045ZM5.00003 1.86045C5.00003 1.56439 5.11764 1.28046 5.32698 1.07112C5.53632 0.861779 5.82025 0.744171 6.11631 0.744171C6.41236 0.744171 6.69629 0.861779 6.90564 1.07112C7.11498 1.28046 7.23259 1.56439 7.23259 1.86045C7.23259 2.15651 7.11498 2.44044 6.90564 2.64978C6.69629 2.85912 6.41236 2.97673 6.11631 2.97673C5.82025 2.97673 5.53632 2.85912 5.32698 2.64978C5.11764 2.44044 5.00003 2.15651 5.00003 1.86045ZM9.46514 1.86045C9.46514 1.56439 9.58275 1.28046 9.7921 1.07112C10.0014 0.861779 10.2854 0.744171 10.5814 0.744171C10.8775 0.744171 11.1614 0.861779 11.3708 1.07112C11.5801 1.28046 11.6977 1.56439 11.6977 1.86045C11.6977 2.15651 11.5801 2.44044 11.3708 2.64978C11.1614 2.85912 10.8775 2.97673 10.5814 2.97673C10.2854 2.97673 10.0014 2.85912 9.7921 2.64978C9.58275 2.44044 9.46514 2.15651 9.46514 1.86045Z" fill="#585858"/>
</svg>
