<svg width="9" height="11" viewBox="0 0 9 11" fill="none" xmlns="http://www.w3.org/2000/svg">
<path fill-rule="evenodd" clip-rule="evenodd" d="M4.37652 10.74L4.41125 10.7599L4.42514 10.7678C4.48023 10.7976 4.54187 10.8132 4.60449 10.8132C4.66712 10.8132 4.72876 10.7976 4.78384 10.7678L4.79773 10.7604L4.83296 10.74C5.027 10.625 5.21634 10.5022 5.40052 10.3719C5.87734 10.0353 6.32284 9.65635 6.73163 9.23974C7.69609 8.25246 8.69777 6.76905 8.69777 4.86046C8.69777 3.77492 8.26654 2.73384 7.49895 1.96625C6.73136 1.19866 5.69028 0.767433 4.60474 0.767433C3.5192 0.767433 2.47813 1.19866 1.71054 1.96625C0.942947 2.73384 0.511719 3.77492 0.511719 4.86046C0.511719 6.76855 1.51389 8.25246 2.47786 9.23974C2.88649 9.65633 3.33182 10.0352 3.80846 10.3719C3.99281 10.5022 4.18231 10.625 4.37652 10.74ZM4.60474 6.34883C4.99948 6.34883 5.37806 6.19202 5.65718 5.91289C5.9363 5.63377 6.09311 5.2552 6.09311 4.86046C6.09311 4.46572 5.9363 4.08714 5.65718 3.80802C5.37806 3.52889 4.99948 3.37208 4.60474 3.37208C4.21 3.37208 3.83143 3.52889 3.5523 3.80802C3.27318 4.08714 3.11637 4.46572 3.11637 4.86046C3.11637 5.2552 3.27318 5.63377 3.5523 5.91289C3.83143 6.19202 4.21 6.34883 4.60474 6.34883Z" fill="url(#paint0_linear_1052_151)"/>
<defs>
<linearGradient id="paint0_linear_1052_151" x1="1.20753" y1="1.01858" x2="9.16976" y2="9.58474" gradientUnits="userSpaceOnUse">
<stop stop-color="#9F7CEC"/>
<stop offset="1" stop-color="#4200C0"/>
</linearGradient>
</defs>
</svg>
