<svg width="20" height="20" viewBox="0 0 20 20" fill="none" xmlns="http://www.w3.org/2000/svg">
<g id="Frame">
<path id="Vector" d="M12.5 1.48657L11.8367 2.14907C11.7056 2.28018 11.6163 2.44723 11.5801 2.62909C11.5439 2.81094 11.5625 2.99944 11.6334 3.17075C11.7044 3.34205 11.8246 3.48847 11.9787 3.59148C12.1329 3.6945 12.3142 3.74948 12.4996 3.74948C12.685 3.74948 12.8663 3.6945 13.0204 3.59148C13.1746 3.48847 13.2948 3.34205 13.3657 3.17075C13.4367 2.99944 13.4552 2.81094 13.4191 2.62909C13.3829 2.44723 13.2936 2.28018 13.1625 2.14907L12.5 1.48657ZM10 1.48657L9.33667 2.14907C9.20556 2.28018 9.11627 2.44723 9.0801 2.62909C9.04392 2.81094 9.06249 2.99944 9.13345 3.17075C9.2044 3.34205 9.32457 3.48847 9.47874 3.59148C9.63291 3.6945 9.81416 3.74948 9.99958 3.74948C10.185 3.74948 10.3663 3.6945 10.5204 3.59148C10.6746 3.48847 10.7948 3.34205 10.8657 3.17075C10.9367 2.99944 10.9552 2.81094 10.9191 2.62909C10.8829 2.44723 10.7936 2.28018 10.6625 2.14907L10 1.48657ZM7.5 1.48657L6.83667 2.14907C6.70556 2.28018 6.61627 2.44723 6.5801 2.62909C6.54392 2.81094 6.56249 2.99944 6.63345 3.17075C6.7044 3.34205 6.82457 3.48847 6.97874 3.59148C7.13291 3.6945 7.31416 3.74948 7.49958 3.74948C7.685 3.74948 7.86626 3.6945 8.02043 3.59148C8.1746 3.48847 8.29476 3.34205 8.36572 3.17075C8.43668 2.99944 8.45524 2.81094 8.41907 2.62909C8.3829 2.44723 8.29361 2.28018 8.1625 2.14907L7.5 1.48657ZM8.125 6.28907C8.54 6.27157 8.95667 6.25991 9.375 6.25407V5.62491C9.375 5.45915 9.44085 5.30017 9.55806 5.18296C9.67527 5.06575 9.83424 4.99991 10 4.99991C10.1658 4.99991 10.3247 5.06575 10.4419 5.18296C10.5592 5.30017 10.625 5.45915 10.625 5.62491V6.25407C11.0433 6.25991 11.46 6.27157 11.875 6.28907V5.62491C11.875 5.45915 11.9408 5.30017 12.0581 5.18296C12.1753 5.06575 12.3342 4.99991 12.5 4.99991C12.6658 4.99991 12.8247 5.06575 12.9419 5.18296C13.0592 5.30017 13.125 5.45915 13.125 5.62491V6.35824L13.3808 6.37657C14.6725 6.47407 15.625 7.56574 15.625 8.83157V9.6799C11.8861 9.27163 8.11389 9.27163 4.375 9.6799V8.83157C4.375 7.56574 5.3275 6.47407 6.61917 6.37657L6.875 6.35824V5.62491C6.875 5.45915 6.94085 5.30017 7.05806 5.18296C7.17527 5.06575 7.33424 4.99991 7.5 4.99991C7.66576 4.99991 7.82473 5.06575 7.94194 5.18296C8.05915 5.30017 8.125 5.45915 8.125 5.62491V6.28907ZM10 10.6249C7.94 10.6249 5.91667 10.7782 3.93833 11.0749C2.72667 11.2557 1.875 12.3099 1.875 13.5049V13.8249C2.60693 13.6889 3.36327 13.7954 4.02917 14.1282C4.3306 14.279 4.66299 14.3574 5 14.3574C5.33701 14.3574 5.6694 14.279 5.97083 14.1282C6.44564 13.8909 6.96918 13.7673 7.5 13.7673C8.03082 13.7673 8.55436 13.8909 9.02917 14.1282C9.3306 14.279 9.66299 14.3574 10 14.3574C10.337 14.3574 10.6694 14.279 10.9708 14.1282C11.4456 13.8909 11.9692 13.7673 12.5 13.7673C13.0308 13.7673 13.5544 13.8909 14.0292 14.1282C14.3306 14.279 14.663 14.3574 15 14.3574C15.337 14.3574 15.6694 14.279 15.9708 14.1282C16.6367 13.7954 17.3931 13.6889 18.125 13.8249V13.5049C18.125 12.3099 17.2733 11.2549 16.0617 11.0741C14.055 10.7744 12.0289 10.6242 10 10.6249ZM18.125 15.1091C17.595 14.9497 17.0241 14.9989 16.5292 15.2466C16.0544 15.4839 15.5308 15.6075 15 15.6075C14.4692 15.6075 13.9456 15.4839 13.4708 15.2466C13.1694 15.0959 12.837 15.0174 12.5 15.0174C12.163 15.0174 11.8306 15.0959 11.5292 15.2466C11.0544 15.4839 10.5308 15.6075 10 15.6075C9.46918 15.6075 8.94564 15.4839 8.47083 15.2466C8.1694 15.0959 7.83701 15.0174 7.5 15.0174C7.16299 15.0174 6.8306 15.0959 6.52917 15.2466C6.05436 15.4839 5.53082 15.6075 5 15.6075C4.46918 15.6075 3.94564 15.4839 3.47083 15.2466C2.97589 14.9989 2.40502 14.9497 1.875 15.1091V17.1874C1.875 18.0499 2.575 18.7499 3.4375 18.7499H16.5625C17.425 18.7499 18.125 18.0499 18.125 17.1874V15.1091Z" fill="url(#paint0_linear_330_20525)"/>
</g>
<defs>
<linearGradient id="paint0_linear_330_20525" x1="3.25625" y1="1.91816" x2="16.6579" y2="18.5733" gradientUnits="userSpaceOnUse">
<stop stop-color="#2131F0"/>
<stop offset="1" stop-color="#0A82FE"/>
</linearGradient>
</defs>
</svg>
