<svg xmlns="http://www.w3.org/2000/svg" width="24" height="24" fill="none"><defs><clipPath id="a"><path fill="#fff" fill-opacity="0" d="M0 0h24v24H0z"/></clipPath></defs><path fill="none" d="M0 0h24v24H0z"/><g clip-path="url(#a)"><path fill="#161616" fill-rule="evenodd" d="M4.5 12c0-.4.15-.78.43-1.07a1.53 1.53 0 0 1 2.13 0c.28.29.44.67.44 1.07 0 .39-.16.77-.44 1.06-.29.28-.67.44-1.06.44-.4 0-.78-.16-1.07-.44-.28-.29-.43-.67-.43-1.06Zm6 0c0-.4.15-.78.43-1.07a1.53 1.53 0 0 1 2.13 0c.28.29.44.67.44 1.07 0 .39-.16.77-.44 1.06-.29.28-.67.44-1.06.44-.4 0-.78-.16-1.07-.44-.28-.29-.43-.67-.43-1.06Zm6 0c0-.4.15-.78.43-1.07a1.53 1.53 0 0 1 2.13 0c.28.29.44.67.44 1.07 0 .39-.16.77-.44 1.06-.29.28-.67.44-1.06.44-.4 0-.78-.16-1.07-.44-.28-.29-.43-.67-.43-1.06Z"/></g></svg>