<svg width="20" height="20" viewBox="0 0 20 20" fill="none" xmlns="http://www.w3.org/2000/svg">
<g id="Frame">
<path id="Vector" d="M9.55861 3.20081C9.6758 3.08376 9.83465 3.01802 10.0003 3.01802C10.1659 3.01802 10.3248 3.08376 10.4419 3.20081L17.6836 10.4425C17.7413 10.5021 17.8103 10.5497 17.8865 10.5824C17.9628 10.6152 18.0448 10.6324 18.1278 10.633C18.2108 10.6337 18.2931 10.6179 18.3699 10.5864C18.4467 10.5549 18.5165 10.5085 18.5751 10.4498C18.6338 10.3911 18.6801 10.3213 18.7115 10.2445C18.7429 10.1676 18.7587 10.0853 18.7579 10.0023C18.7572 9.91935 18.7399 9.83735 18.7071 9.76111C18.6743 9.68488 18.6267 9.61593 18.5669 9.55831L11.3261 2.31664C11.152 2.14253 10.9453 2.00441 10.7178 1.91018C10.4903 1.81596 10.2465 1.76746 10.0003 1.76746C9.75405 1.76746 9.51023 1.81596 9.28274 1.91018C9.05525 2.00441 8.84855 2.14253 8.67444 2.31664L1.43278 9.55831C1.37311 9.61599 1.32553 9.68498 1.29281 9.76124C1.26009 9.83751 1.24289 9.91953 1.24221 10.0025C1.24153 10.0855 1.25738 10.1678 1.28884 10.2446C1.3203 10.3214 1.36674 10.3911 1.42545 10.4498C1.48416 10.5085 1.55397 10.5548 1.63079 10.5862C1.70762 10.6176 1.78992 10.6334 1.87291 10.6326C1.9559 10.6319 2.0379 10.6146 2.11414 10.5818C2.19038 10.549 2.25932 10.5014 2.31694 10.4416L9.55861 3.20081Z" fill="url(#paint0_linear_159_6012)"/>
<path id="Vector_2" d="M10 4.52661L16.7992 11.3258C16.8242 11.3508 16.8492 11.3741 16.875 11.3974V16.5624C16.875 17.4249 16.175 18.1249 15.3125 18.1249H12.5C12.3342 18.1249 12.1753 18.0591 12.0581 17.9419C11.9408 17.8247 11.875 17.6657 11.875 17.4999V13.7499C11.875 13.5842 11.8092 13.4252 11.6919 13.308C11.5747 13.1908 11.4158 13.1249 11.25 13.1249H8.75C8.58424 13.1249 8.42527 13.1908 8.30806 13.308C8.19085 13.4252 8.125 13.5842 8.125 13.7499V17.4999C8.125 17.6657 8.05915 17.8247 7.94194 17.9419C7.82473 18.0591 7.66576 18.1249 7.5 18.1249H4.6875C4.2731 18.1249 3.87567 17.9603 3.58265 17.6673C3.28962 17.3743 3.125 16.9768 3.125 16.5624V11.3974C3.15093 11.3743 3.17621 11.3504 3.20083 11.3258L10 4.52661Z" fill="url(#paint1_linear_159_6012)"/>
</g>
<defs>
<linearGradient id="paint0_linear_159_6012" x1="2.73103" y1="1.9891" x2="7.44097" y2="14.2747" gradientUnits="userSpaceOnUse">
<stop stop-color="#4D34E6"/>
<stop offset="1" stop-color="#8C12B7"/>
</linearGradient>
<linearGradient id="paint1_linear_159_6012" x1="4.29375" y1="4.86657" x2="14.6647" y2="18.7116" gradientUnits="userSpaceOnUse">
<stop stop-color="#4D34E6"/>
<stop offset="1" stop-color="#8C12B7"/>
</linearGradient>
</defs>
</svg>
