<svg width="20" height="20" viewBox="0 0 20 20" fill="none" xmlns="http://www.w3.org/2000/svg">
<g id="Frame">
<path id="Vector" fill-rule="evenodd" clip-rule="evenodd" d="M3.75 3.125C3.08696 3.125 2.45107 3.38839 1.98223 3.85723C1.51339 4.32607 1.25 4.96196 1.25 5.625V14.375C1.25 15.038 1.51339 15.6739 1.98223 16.1428C2.45107 16.6116 3.08696 16.875 3.75 16.875H16.25C16.913 16.875 17.5489 16.6116 18.0178 16.1428C18.4866 15.6739 18.75 15.038 18.75 14.375V5.625C18.75 4.96196 18.4866 4.32607 18.0178 3.85723C17.5489 3.38839 16.913 3.125 16.25 3.125H3.75ZM7.1875 5.625C6.69022 5.625 6.21331 5.82254 5.86167 6.17417C5.51004 6.52581 5.3125 7.00272 5.3125 7.5C5.3125 7.99728 5.51004 8.47419 5.86167 8.82582C6.21331 9.17746 6.69022 9.375 7.1875 9.375C7.68478 9.375 8.16169 9.17746 8.51332 8.82582C8.86496 8.47419 9.0625 7.99728 9.0625 7.5C9.0625 7.00272 8.86496 6.52581 8.51332 6.17417C8.16169 5.82254 7.68478 5.625 7.1875 5.625ZM3.96 12.8775C4.20269 12.2168 4.64232 11.6465 5.2195 11.2436C5.79669 10.8407 6.48361 10.6247 7.1875 10.6247C7.89139 10.6247 8.57831 10.8407 9.1555 11.2436C9.73268 11.6465 10.1723 12.2168 10.415 12.8775C10.4669 13.0191 10.4659 13.1747 10.4122 13.3156C10.3584 13.4565 10.2555 13.5732 10.1225 13.6442C9.21913 14.1254 8.21104 14.3764 7.1875 14.375C6.16396 14.3764 5.15587 14.1254 4.2525 13.6442C4.11946 13.5732 4.01657 13.4565 3.96281 13.3156C3.90906 13.1747 3.90806 13.0191 3.96 12.8775ZM12.5 6.875C12.3342 6.875 12.1753 6.94085 12.0581 7.05806C11.9408 7.17527 11.875 7.33424 11.875 7.5C11.875 7.66576 11.9408 7.82473 12.0581 7.94194C12.1753 8.05915 12.3342 8.125 12.5 8.125H15.625C15.7908 8.125 15.9497 8.05915 16.0669 7.94194C16.1842 7.82473 16.25 7.66576 16.25 7.5C16.25 7.33424 16.1842 7.17527 16.0669 7.05806C15.9497 6.94085 15.7908 6.875 15.625 6.875H12.5ZM11.875 10C11.875 9.83424 11.9408 9.67527 12.0581 9.55806C12.1753 9.44085 12.3342 9.375 12.5 9.375H15.625C15.7908 9.375 15.9497 9.44085 16.0669 9.55806C16.1842 9.67527 16.25 9.83424 16.25 10C16.25 10.1658 16.1842 10.3247 16.0669 10.4419C15.9497 10.5592 15.7908 10.625 15.625 10.625H12.5C12.3342 10.625 12.1753 10.5592 12.0581 10.4419C11.9408 10.3247 11.875 10.1658 11.875 10ZM12.5 11.875C12.3342 11.875 12.1753 11.9408 12.0581 12.0581C11.9408 12.1753 11.875 12.3342 11.875 12.5C11.875 12.6658 11.9408 12.8247 12.0581 12.9419C12.1753 13.0592 12.3342 13.125 12.5 13.125H15.625C15.7908 13.125 15.9497 13.0592 16.0669 12.9419C16.1842 12.8247 16.25 12.6658 16.25 12.5C16.25 12.3342 16.1842 12.1753 16.0669 12.0581C15.9497 11.9408 15.7908 11.875 15.625 11.875H12.5Z" fill="url(#paint0_linear_159_6017)"/>
</g>
<defs>
<linearGradient id="paint0_linear_159_6017" x1="2.7375" y1="3.46875" x2="12.342" y2="19.6076" gradientUnits="userSpaceOnUse">
<stop stop-color="#CDE634"/>
<stop offset="1" stop-color="#12B740"/>
</linearGradient>
</defs>
</svg>
