<svg xmlns="http://www.w3.org/2000/svg" width="79.6" height="48" fill="none"><defs><linearGradient id="e" x1="6.766" x2="67.66" y1="1.2" y2="49.68" gradientUnits="userSpaceOnUse"><stop stop-color="#9702F5"/><stop offset="1" stop-color="#F41072"/></linearGradient><linearGradient id="b" x1="31.166" x2="47.078" y1="12.82" y2="33.828" gradientUnits="userSpaceOnUse"><stop stop-color="#9702F5"/><stop offset="1" stop-color="#F41072"/></linearGradient><clipPath id="d"><path fill="#fff" fill-opacity="0" d="M32.865 15.767h13.867v13.867H32.865z"/></clipPath><clipPath id="c"><rect width="20.8" height="20.8" fill="#fff" fill-opacity="0" rx="10.4" transform="translate(29.398 12.3)"/></clipPath><filter id="a" width="39.867" height="19.067" x="19.866" y="23.567" color-interpolation-filters="sRGB" filterUnits="userSpaceOnUse"><feFlood flood-opacity="0" result="BackgroundImageFix"/><feBlend in="SourceGraphic" in2="BackgroundImageFix" result="shape"/><feGaussianBlur result="effect_layerBlur_1" stdDeviation="2.311"/></filter></defs><rect width="78.6" height="47" fill="#F7F7F7" rx="3.5" transform="translate(.5 .5)"/><g filter="url(#a)"><ellipse cx="39.8" cy="33.1" fill="#B006D3" fill-opacity=".24" rx="13" ry="2.6"/></g><rect width="20.8" height="20.8" fill="url(#b)" rx="10.4" transform="translate(29.398 12.3)"/><g clip-path="url(#c)"><path fill="none" d="M32.865 15.767h13.867v13.867H32.865z"/><g clip-path="url(#d)"><path stroke="#FFF" stroke-linejoin="round" stroke-width=".867" d="M41.33 20.76c-.41.41-.96.63-1.54.63-.57 0-1.12-.22-1.53-.63-.41-.41-.63-.96-.63-1.53 0-.58.22-1.13.63-1.53.41-.41.96-.64 1.53-.64a2.172 2.172 0 0 1 2.17 2.17 2.2 2.2 0 0 1-.63 1.53Zm-4.58 3.61a4.324 4.324 0 0 1 6.08 0 4.28 4.28 0 0 1 1.29 3.02 10.455 10.455 0 0 1-8.66 0c.02-1.14.48-2.23 1.29-3.02Z"/></g></g><rect width="78.6" height="47" stroke="url(#e)" rx="3.5" transform="translate(.5 .5)"/></svg>