<svg xmlns="http://www.w3.org/2000/svg" width="79.6" height="48" fill="none"><defs><clipPath id="a"><path fill="#fff" fill-opacity="0" d="M27.8 12h24v24h-24z"/></clipPath></defs><path fill="none" d="M27.8 12h24v24h-24z"/><g stroke="#585858" stroke-linejoin="round" stroke-width="1.5" clip-path="url(#a)"><path d="M39.8 33c3.75 0 5-2.5 2.5-7.5-3.5 4.5-4-2.5-3.5-4.5-1.5 3-3 5.81-3 9 0 2.41 1.79 3 4 3Z"/><path d="M47.8 25.12c0-4.97-8-10.12-8-10.12s-8 5.15-8 10.12c0 4.97 2.95 7.88 8 7.88s8-2.91 8-7.88Z"/></g></svg>