<svg xmlns="http://www.w3.org/2000/svg" width="79.6" height="48" fill="none"><defs><clipPath id="a"><path fill="#fff" fill-opacity="0" d="M27.8 12h24v24h-24z"/></clipPath></defs><path fill="none" d="M27.8 12h24v24h-24z"/><g clip-path="url(#a)"><path stroke="#585858" stroke-linejoin="round" stroke-width="1.5" d="M41.29 33v-7.5c0-.2.08-.39.22-.54.15-.14.34-.21.53-.21h3c.2 0 .39.07.54.21.14.15.21.34.21.54V33m3.64 0H30.15m17.89 0V21.34M31.54 33V21.34m1.99.37c.68-.12 1.31-.46 1.76-.98.29.32.63.57 1.02.75.39.18.81.27 1.23.27a3 3 0 0 0 2.25-1.02c.29.32.63.57 1.02.75.39.18.81.27 1.23.27a3 3 0 0 0 2.25-1.02c.46.52 1.09.86 1.77.98.68.11 1.38-.02 1.98-.37.4-.23.74-.54 1-.93.25-.38.42-.82.48-1.27.06-.46.01-.92-.13-1.36-.15-.43-.4-.83-.72-1.16l-1.19-1.18c-.29-.29-.67-.44-1.06-.44H33.17c-.39 0-.78.15-1.06.43l-1.19 1.19c-.32.33-.57.73-.71 1.16-.15.44-.2.9-.14 1.36.06.45.23.89.48 1.27.26.38.6.7.99.93.6.35 1.31.48 1.99.37ZM38.29 30c.2 0 .39-.08.54-.22.14-.15.21-.34.21-.53V25.5c0-.2-.07-.39-.21-.54a.78.78 0 0 0-.54-.21h-3.75c-.19 0-.38.07-.53.21a.79.79 0 0 0-.22.54v3.75c0 .41.34.75.75.75h3.75Z"/></g></svg>