<svg xmlns="http://www.w3.org/2000/svg" width="79.6" height="48" fill="none"><defs><clipPath id="a"><path fill="#fff" fill-opacity="0" d="M27.8 12h24v24h-24z"/></clipPath></defs><path fill="none" d="M27.8 12h24v24h-24z"/><g clip-path="url(#a)"><path stroke="#585858" stroke-linejoin="round" stroke-width="1.5" d="M39.79 19.5h1.5m-1.5 3h1.5m-7.5 3h7.5m-7.5 3h7.5m3-9h3.38c.62 0 1.12.5 1.12 1.12V30c0 .59-.23 1.16-.65 1.59-.43.42-1 .66-1.6.66-.59 0-1.16-.24-1.59-.66-.42-.43-.66-1-.66-1.59V16.87c0-.62-.5-1.12-1.12-1.12H31.92c-.62 0-1.13.5-1.13 1.12V30c0 .59.24 1.16.66 1.59.43.42 1 .66 1.59.66h13.5M36.79 19.5v3h-3v-3h3Z"/></g></svg>