<svg width="24" height="24" viewBox="0 0 24 24" fill="none" xmlns="http://www.w3.org/2000/svg">
<g id="Frame" clip-path="url(#clip0_4072_14440)">
<g id="Group">
<path id="Vector" d="M14.9999 13.0001C14.4469 13.0001 13.9999 13.4482 13.9999 14V18.0001C13.9999 18.5511 13.5519 19 12.9998 19H9.99984V4.00019C9.99984 3.14618 9.45586 2.38321 8.6379 2.09919L8.34184 2.00015H12.9998C13.5519 2.00015 13.9999 2.44911 13.9999 3.00026V6.00023C13.9999 6.55209 14.4469 7.00016 14.9999 7.00016C15.5528 7.00016 15.9998 6.55209 15.9998 6.00023V3.00026C15.9998 1.34629 14.6538 0.000291015 12.9998 0.000291015H2.24998C2.21192 0.000291015 2.18004 0.0173065 2.14306 0.0222752C2.09487 0.018244 2.04893 0.000244141 2.00004 0.000244141C0.897038 0.000291015 0 0.897188 0 2.00019V20C0 20.854 0.543979 21.617 1.36194 21.901L7.37993 23.9071C7.58393 23.97 7.7868 24.0001 7.99994 24.0001C9.10294 24.0001 9.99979 23.103 9.99979 22V21.0001H12.9998C14.6537 21.0001 15.9997 19.6541 15.9997 18.0001V14C15.9997 13.4482 15.5528 13.0001 14.9998 13.0001H14.9999Z" fill="url(#paint0_linear_4072_14440)"/>
<path id="Vector_2" d="M23.7068 9.29312L19.7067 5.29322C19.5669 5.15327 19.3888 5.05794 19.1948 5.01928C19.0008 4.98062 18.7997 5.00038 18.6169 5.07605C18.2439 5.23115 17.9998 5.59607 17.9998 6.00018V9.00015H13.9999C13.4479 9.00015 12.9998 9.44804 12.9998 10.0001C12.9998 10.5521 13.4479 11 13.9999 11H17.9998V14C17.9998 14.4041 18.2439 14.769 18.6169 14.9241C18.7996 14.9998 19.0007 15.0195 19.1947 14.9809C19.3887 14.9423 19.5669 14.847 19.7067 14.7071L23.7068 10.707C24.0977 10.3161 24.0977 9.68405 23.7068 9.29312Z" fill="url(#paint1_linear_4072_14440)"/>
</g>
</g>
<defs>
<linearGradient id="paint0_linear_4072_14440" x1="1.35998" y1="0.60024" x2="20.2787" y2="17.2519" gradientUnits="userSpaceOnUse">
<stop stop-color="#EA6A6A"/>
<stop offset="1" stop-color="#E11010"/>
</linearGradient>
<linearGradient id="paint1_linear_4072_14440" x1="13.9348" y1="5.25" x2="21.3592" y2="16.0324" gradientUnits="userSpaceOnUse">
<stop stop-color="#EA6A6A"/>
<stop offset="1" stop-color="#E11010"/>
</linearGradient>
<clipPath id="clip0_4072_14440">
<rect width="24" height="24" fill="white"/>
</clipPath>
</defs>
</svg>
