<svg width="19" height="19" viewBox="0 0 19 19" fill="none" xmlns="http://www.w3.org/2000/svg">
<g id="Frame">
<path id="Vector" d="M11.3355 13.4331C12.7221 13.269 14.0844 12.9417 15.3943 12.4582C14.285 11.2294 13.672 9.63219 13.6745 7.97675V7.41861C13.6745 6.23439 13.204 5.09867 12.3667 4.26129C11.5293 3.42392 10.3936 2.95349 9.20936 2.95349C8.02513 2.95349 6.88941 3.42392 6.05204 4.26129C5.21467 5.09867 4.74424 6.23439 4.74424 7.41861V7.97675C4.74648 9.63229 4.13325 11.2296 3.02368 12.4582C4.31336 12.9345 5.67298 13.2657 7.08322 13.4331M11.3355 13.4331C9.92302 13.6007 8.49569 13.6007 7.08322 13.4331M11.3355 13.4331C11.4427 13.7679 11.4694 14.1233 11.4133 14.4703C11.3573 14.8173 11.22 15.1462 11.0128 15.4302C10.8056 15.7142 10.5342 15.9452 10.2208 16.1045C9.90746 16.2637 9.56089 16.3467 9.20936 16.3467C8.85782 16.3467 8.51125 16.2637 8.19786 16.1045C7.88448 15.9452 7.61313 15.7142 7.40591 15.4302C7.19869 15.1462 7.06146 14.8173 7.00538 14.4703C6.94931 14.1233 6.97598 13.7679 7.08322 13.4331" stroke="#585858" stroke-width="1.11628" stroke-linecap="round" stroke-linejoin="round"/>
</g>
</svg>
