<svg xmlns="http://www.w3.org/2000/svg" width="142" height="142" viewBox="0 0 142 142" fill="none">
  <circle cx="71.0001" cy="70.7699" r="70.6835" fill="#D2D2D2"/>
  <path fill-rule="evenodd" clip-rule="evenodd" d="M28.5901 126.534C29.6437 116.759 34.0423 107.599 41.1053 100.646C49.105 92.7694 59.881 88.3549 71.1073 88.3549C82.3335 88.3549 93.1096 92.7694 101.109 100.646C108.172 107.599 112.571 116.759 113.624 126.534C101.793 135.457 87.0678 140.746 71.1073 140.746C55.1468 140.746 40.4219 135.456 28.5901 126.534ZM54.6136 40.8463C50.2393 45.2207 47.7817 51.1536 47.7817 57.3399C47.7817 63.5263 50.2393 69.4592 54.6136 73.8336C58.988 78.208 64.921 80.6655 71.1073 80.6655C77.2936 80.6655 83.2265 78.208 87.6009 73.8336C91.9753 69.4592 94.4328 63.5263 94.4328 57.3399C94.4328 51.1536 91.9753 45.2207 87.6009 40.8463C83.2265 36.4719 77.2936 34.0144 71.1073 34.0144C64.921 34.0144 58.988 36.4719 54.6136 40.8463Z" fill="#585858"/>
</svg>