<svg width="24" height="24" viewBox="0 0 24 24" fill="none" xmlns="http://www.w3.org/2000/svg">
<g id="Frame">
<path id="Vector" d="M5.22301 2.25C4.72601 2.25 4.24901 2.448 3.89801 2.8L2.59801 4.098C1.92624 4.76853 1.53372 5.66884 1.49962 6.61738C1.46551 7.56592 1.79237 8.4921 2.41425 9.20913C3.03614 9.92617 3.90679 10.3807 4.85062 10.4811C5.79445 10.5815 6.74122 10.3202 7.50001 9.75C8.12701 10.22 8.90601 10.5 9.75001 10.5C10.594 10.5 11.374 10.22 12 9.75C12.626 10.22 13.406 10.5 14.25 10.5C15.094 10.5 15.873 10.22 16.5 9.75C17.2588 10.3202 18.2056 10.5815 19.1494 10.4811C20.0932 10.3807 20.9639 9.92617 21.5858 9.20913C22.2076 8.4921 22.5345 7.56592 22.5004 6.61738C22.4663 5.66884 22.0738 4.76853 21.402 4.098L20.102 2.799C19.7505 2.44764 19.274 2.25017 18.777 2.25H5.22301Z" fill="url(#paint0_linear_4072_14416)"/>
<path id="Vector_2" fill-rule="evenodd" clip-rule="evenodd" d="M3 20.2499V11.4949C4.42 12.1689 6.08 12.1679 7.5 11.4949C8.20313 11.8284 8.97178 12.0009 9.75 11.9999C10.554 11.9999 11.318 11.8179 12 11.4939C12.7031 11.8278 13.4717 12.0006 14.25 11.9999C15.054 11.9999 15.817 11.8179 16.5 11.4939C17.92 12.1679 19.58 12.1689 21 11.4949V20.2499H21.75C21.9489 20.2499 22.1397 20.3289 22.2803 20.4696C22.421 20.6102 22.5 20.801 22.5 20.9999C22.5 21.1988 22.421 21.3896 22.2803 21.5302C22.1397 21.6709 21.9489 21.7499 21.75 21.7499H2.25C2.05109 21.7499 1.86032 21.6709 1.71967 21.5302C1.57902 21.3896 1.5 21.1988 1.5 20.9999C1.5 20.801 1.57902 20.6102 1.71967 20.4696C1.86032 20.3289 2.05109 20.2499 2.25 20.2499H3ZM6 14.2499C6 14.051 6.07902 13.8602 6.21967 13.7196C6.36032 13.5789 6.55109 13.4999 6.75 13.4999H9.75C9.94891 13.4999 10.1397 13.5789 10.2803 13.7196C10.421 13.8602 10.5 14.051 10.5 14.2499V17.2499C10.5 17.4488 10.421 17.6396 10.2803 17.7802C10.1397 17.9209 9.94891 17.9999 9.75 17.9999H6.75C6.55109 17.9999 6.36032 17.9209 6.21967 17.7802C6.07902 17.6396 6 17.4488 6 17.2499V14.2499ZM14.25 13.4999C14.0511 13.4999 13.8603 13.5789 13.7197 13.7196C13.579 13.8602 13.5 14.051 13.5 14.2499V19.4999C13.5 19.9139 13.836 20.2499 14.25 20.2499H17.25C17.4489 20.2499 17.6397 20.1709 17.7803 20.0302C17.921 19.8896 18 19.6988 18 19.4999V14.2499C18 14.051 17.921 13.8602 17.7803 13.7196C17.6397 13.5789 17.4489 13.4999 17.25 13.4999H14.25Z" fill="url(#paint1_linear_4072_14416)"/>
</g>
<defs>
<linearGradient id="paint0_linear_4072_14416" x1="3.28267" y1="2.4563" x2="6.86803" y2="14.5056" gradientUnits="userSpaceOnUse">
<stop stop-color="#EC8154"/>
<stop offset="1" stop-color="#E21D1D"/>
</linearGradient>
<linearGradient id="paint1_linear_4072_14416" x1="3.285" y1="11.7503" x2="8.58921" y2="26.0894" gradientUnits="userSpaceOnUse">
<stop stop-color="#EC8154"/>
<stop offset="1" stop-color="#E21D1D"/>
</linearGradient>
</defs>
</svg>
