<svg width="382" height="24" viewBox="0 0 382 24" fill="none" xmlns="http://www.w3.org/2000/svg">
<rect width="24" height="24" rx="12" fill="url(#paint0_linear_331_21603)"/>
<path d="M13.1335 6.81818V17H11.9006V8.1108H11.8409L9.35511 9.76136V8.50852L11.9006 6.81818H13.1335Z" fill="white"/>
<rect x="24" y="10" width="47.6" height="4" rx="2" fill="url(#paint1_linear_331_21603)"/>
<rect x="71.6" width="24" height="24" rx="12" fill="url(#paint2_linear_331_21603)"/>
<path d="M80.154 17V16.1051L83.5147 12.4261C83.9092 11.9953 84.234 11.6207 84.4892 11.3026C84.7444 10.9811 84.9333 10.6795 85.0559 10.3977C85.1819 10.1127 85.2449 9.81439 85.2449 9.50284C85.2449 9.14489 85.1587 8.83499 84.9863 8.57315C84.8173 8.31132 84.5853 8.10914 84.2903 7.96662C83.9953 7.8241 83.6639 7.75284 83.296 7.75284C82.9049 7.75284 82.5635 7.83404 82.2719 7.99645C81.9835 8.15554 81.7598 8.37926 81.6007 8.66761C81.4449 8.95597 81.367 9.29403 81.367 9.68182H80.1937C80.1937 9.08523 80.3313 8.56155 80.6064 8.1108C80.8815 7.66004 81.256 7.30871 81.7299 7.05682C82.2072 6.80492 82.7425 6.67898 83.3358 6.67898C83.9324 6.67898 84.461 6.80492 84.9217 7.05682C85.3824 7.30871 85.7437 7.64844 86.0055 8.07599C86.2674 8.50355 86.3983 8.97917 86.3983 9.50284C86.3983 9.87737 86.3303 10.2436 86.1944 10.6016C86.0619 10.9562 85.8299 11.3523 85.4984 11.7898C85.1703 12.224 84.7146 12.7543 84.1312 13.3807L81.8443 15.8267V15.9062H86.5772V17H80.154Z" fill="white"/>
<rect x="95.6" y="10" width="47.6" height="4" rx="2" fill="url(#paint3_linear_331_21603)"/>
<rect x="143.7" y="0.5" width="23" height="23" rx="11.5" fill="white"/>
<rect x="143.7" y="0.5" width="23" height="23" rx="11.5" stroke="url(#paint4_linear_331_21603)"/>
<path d="M155.194 17.1392C154.538 17.1392 153.953 17.0265 153.439 16.8011C152.929 16.5758 152.523 16.2625 152.221 15.8615C151.923 15.4571 151.761 14.9882 151.734 14.4545H152.987C153.013 14.7827 153.126 15.0661 153.325 15.3047C153.524 15.54 153.784 15.7223 154.105 15.8516C154.427 15.9808 154.783 16.0455 155.174 16.0455C155.612 16.0455 156 15.9692 156.338 15.8168C156.676 15.6643 156.941 15.4522 157.133 15.1804C157.325 14.9086 157.422 14.5938 157.422 14.2358C157.422 13.8613 157.329 13.5315 157.143 13.2464C156.958 12.9581 156.686 12.7327 156.328 12.5703C155.97 12.4079 155.532 12.3267 155.015 12.3267H154.2V11.233H155.015C155.42 11.233 155.774 11.16 156.079 11.0142C156.387 10.8684 156.628 10.6629 156.8 10.3977C156.976 10.1326 157.064 9.82102 157.064 9.46307C157.064 9.11837 156.987 8.81842 156.835 8.56321C156.682 8.308 156.467 8.10914 156.189 7.96662C155.913 7.8241 155.589 7.75284 155.214 7.75284C154.863 7.75284 154.531 7.81747 154.22 7.94673C153.912 8.07268 153.66 8.25663 153.464 8.49858C153.269 8.73722 153.163 9.02557 153.146 9.36364H151.953C151.973 8.83002 152.133 8.36269 152.435 7.96165C152.737 7.55729 153.131 7.24242 153.618 7.01705C154.109 6.79167 154.647 6.67898 155.234 6.67898C155.864 6.67898 156.404 6.80658 156.855 7.06179C157.306 7.31368 157.652 7.64678 157.894 8.06108C158.136 8.47538 158.257 8.92282 158.257 9.40341C158.257 9.9768 158.106 10.4657 157.804 10.87C157.506 11.2744 157.1 11.5545 156.586 11.7102V11.7898C157.229 11.8958 157.731 12.1693 158.093 12.6101C158.454 13.0476 158.635 13.5895 158.635 14.2358C158.635 14.7893 158.484 15.2865 158.182 15.7273C157.884 16.1648 157.476 16.5095 156.959 16.7614C156.442 17.0133 155.854 17.1392 155.194 17.1392Z" fill="#585858"/>
<rect x="167.2" y="10" width="47.6" height="4" rx="2" fill="#D2D2D2"/>
<rect x="215.3" y="0.5" width="23" height="23" rx="11.5" fill="white"/>
<rect x="215.3" y="0.5" width="23" height="23" rx="11.5" stroke="#D2D2D2"/>
<path d="M223.115 14.9119V13.8977L227.59 6.81818H228.326V8.3892H227.828L224.448 13.7386V13.8182H230.473V14.9119H223.115ZM227.908 17V14.6037V14.1314V6.81818H229.081V17H227.908Z" fill="#585858"/>
<rect x="238.8" y="10" width="47.6" height="4" rx="2" fill="#D2D2D2"/>
<rect x="286.9" y="0.5" width="23" height="23" rx="11.5" fill="white"/>
<rect x="286.9" y="0.5" width="23" height="23" rx="11.5" stroke="#D2D2D2"/>
<path d="M298.136 17.1392C297.552 17.1392 297.027 17.0232 296.56 16.7912C296.092 16.5592 295.718 16.241 295.436 15.8366C295.155 15.4323 295 14.9716 294.974 14.4545H296.167C296.213 14.9152 296.422 15.2964 296.793 15.598C297.168 15.8963 297.615 16.0455 298.136 16.0455C298.553 16.0455 298.925 15.9477 299.249 15.7521C299.578 15.5566 299.834 15.2881 300.02 14.9467C300.209 14.602 300.303 14.2126 300.303 13.7784C300.303 13.3343 300.206 12.9382 300.01 12.5902C299.818 12.2389 299.553 11.9621 299.215 11.7599C298.877 11.5578 298.49 11.455 298.056 11.4517C297.745 11.4484 297.425 11.4964 297.097 11.5959C296.769 11.692 296.499 11.8163 296.286 11.9688L295.133 11.8295L295.749 6.81818H301.039V7.91193H296.784L296.426 10.9148H296.485C296.694 10.7491 296.956 10.6115 297.271 10.5021C297.586 10.3928 297.914 10.3381 298.255 10.3381C298.878 10.3381 299.433 10.4872 299.921 10.7855C300.411 11.0805 300.796 11.4848 301.074 11.9986C301.356 12.5123 301.497 13.099 301.497 13.7585C301.497 14.4081 301.351 14.9882 301.059 15.4986C300.771 16.0057 300.373 16.4067 299.866 16.7017C299.359 16.9934 298.782 17.1392 298.136 17.1392Z" fill="#585858"/>
<rect x="310.4" y="10" width="47.6" height="4" rx="2" fill="#D2D2D2"/>
<rect x="358.5" y="0.5" width="23" height="23" rx="11.5" fill="white"/>
<rect x="358.5" y="0.5" width="23" height="23" rx="11.5" stroke="#D2D2D2"/>
<path d="M369.935 17.1392C369.517 17.1326 369.099 17.053 368.682 16.9006C368.264 16.7481 367.883 16.4912 367.538 16.13C367.194 15.7654 366.917 15.2732 366.708 14.6534C366.499 14.0303 366.395 13.2481 366.395 12.3068C366.395 11.4053 366.479 10.6065 366.648 9.91051C366.817 9.21117 367.063 8.62287 367.384 8.1456C367.706 7.66501 368.094 7.30043 368.548 7.05185C369.005 6.80327 369.52 6.67898 370.094 6.67898C370.664 6.67898 371.171 6.79332 371.615 7.02202C372.063 7.2474 372.427 7.56226 372.709 7.96662C372.991 8.37098 373.173 8.83665 373.256 9.36364H372.043C371.93 8.90625 371.711 8.52675 371.386 8.22514C371.062 7.92353 370.631 7.77273 370.094 7.77273C369.305 7.77273 368.683 8.11577 368.229 8.80185C367.779 9.48793 367.552 10.4508 367.548 11.6903H367.628C367.813 11.4086 368.034 11.1683 368.289 10.9695C368.548 10.7673 368.833 10.6115 369.144 10.5021C369.456 10.3928 369.786 10.3381 370.134 10.3381C370.717 10.3381 371.25 10.4839 371.734 10.7756C372.218 11.0639 372.606 11.4633 372.898 11.9737C373.189 12.4808 373.335 13.0625 373.335 13.7188C373.335 14.3485 373.194 14.9252 372.913 15.4489C372.631 15.9692 372.235 16.3835 371.724 16.6918C371.217 16.9967 370.621 17.1458 369.935 17.1392ZM369.935 16.0455C370.352 16.0455 370.727 15.9411 371.058 15.7322C371.393 15.5234 371.656 15.2434 371.849 14.892C372.044 14.5407 372.142 14.1496 372.142 13.7188C372.142 13.2978 372.048 12.915 371.859 12.5703C371.673 12.2223 371.416 11.9455 371.088 11.7401C370.763 11.5346 370.392 11.4318 369.974 11.4318C369.66 11.4318 369.366 11.4948 369.094 11.6207C368.823 11.7434 368.584 11.9124 368.379 12.1278C368.176 12.3433 368.017 12.5902 367.901 12.8686C367.785 13.1437 367.727 13.4337 367.727 13.7386C367.727 14.143 367.822 14.5208 368.011 14.8722C368.203 15.2235 368.465 15.5069 368.796 15.7223C369.131 15.9377 369.51 16.0455 369.935 16.0455Z" fill="#585858"/>
<defs>
<linearGradient id="paint0_linear_331_21603" x1="-3.32308" y1="-1.10769" x2="29.1692" y2="28.6154" gradientUnits="userSpaceOnUse">
<stop stop-color="#FFB800"/>
<stop offset="1" stop-color="#FF7A00"/>
</linearGradient>
<linearGradient id="paint1_linear_331_21603" x1="17.4092" y1="9.81538" x2="18.3998" y2="20.5982" gradientUnits="userSpaceOnUse">
<stop stop-color="#FFB800"/>
<stop offset="1" stop-color="#FF7A00"/>
</linearGradient>
<linearGradient id="paint2_linear_331_21603" x1="68.2769" y1="-1.10769" x2="100.769" y2="28.6154" gradientUnits="userSpaceOnUse">
<stop stop-color="#FFB800"/>
<stop offset="1" stop-color="#FF7A00"/>
</linearGradient>
<linearGradient id="paint3_linear_331_21603" x1="89.0092" y1="9.81538" x2="89.9997" y2="20.5982" gradientUnits="userSpaceOnUse">
<stop stop-color="#FFB800"/>
<stop offset="1" stop-color="#FF7A00"/>
</linearGradient>
<linearGradient id="paint4_linear_331_21603" x1="139.877" y1="-1.10769" x2="172.369" y2="28.6154" gradientUnits="userSpaceOnUse">
<stop stop-color="#FFB800"/>
<stop offset="1" stop-color="#FF7A00"/>
</linearGradient>
</defs>
</svg>
