<svg xmlns="http://www.w3.org/2000/svg" width="24" height="23" viewBox="0 0 24 23" fill="none">
  <path d="M8.90295 7.8473H7.48928C6.92689 7.8473 6.38753 8.07071 5.98986 8.46838C5.59218 8.86606 5.36877 9.40541 5.36877 9.96781V18.4498C5.36877 19.0122 5.59218 19.5516 5.98986 19.9492C6.38753 20.3469 6.92689 20.5703 7.48928 20.5703H15.9713C16.5337 20.5703 17.073 20.3469 17.4707 19.9492C17.8684 19.5516 18.0918 19.0122 18.0918 18.4498V9.96781C18.0918 9.40541 17.8684 8.86606 17.4707 8.46838C17.073 8.07071 16.5337 7.8473 15.9713 7.8473H14.5576M14.5576 5.01996L11.7303 2.19263M11.7303 2.19263L8.90295 5.01996M11.7303 2.19263V14.2088" stroke="#939393" stroke-width="1.41367" stroke-linecap="round" stroke-linejoin="round"/>
</svg>