<svg width="152" height="168" viewBox="0 0 152 168" fill="none" xmlns="http://www.w3.org/2000/svg">
<g id="Vector" filter="url(#filter0_b_655_1617)">
<path d="M33.3182 162.877L70.6569 136.075C78.0922 130.735 88.1375 131.119 95.0971 137.043L118.12 156.553C134.061 170.063 157.409 152.938 149.323 133.675L98.4626 13.3997C91.7957 -2.39825 69.4254 -2.71215 62.164 12.8844L3.78197 138.515C-4.83963 156.993 16.7833 174.752 33.3182 162.877Z" fill="url(#paint0_linear_655_1617)"/>
<path d="M70.9486 136.481L70.9485 136.481L33.6098 163.283C33.6098 163.283 33.6098 163.283 33.6097 163.283C16.6642 175.453 -5.51426 157.257 3.32887 138.304M70.9486 136.481L98.4626 13.3997L98.9232 13.2053M70.9486 136.481C78.1986 131.274 87.9898 131.649 94.773 137.424L94.7739 137.425L117.797 156.934C134.14 170.785 158.074 153.229 149.784 133.481L149.783 133.48L98.9232 13.2053M70.9486 136.481L98.9232 13.2053M3.32887 138.304L3.78197 138.515L3.32854 138.305L3.32887 138.304ZM3.32887 138.304L61.7106 12.6737L61.7107 12.6734C69.1522 -3.31007 92.0849 -2.99827 98.9231 13.205C98.9231 13.2051 98.9232 13.2052 98.9232 13.2053" stroke="url(#paint1_radial_655_1617)"/>
</g>
<defs>
<filter id="filter0_b_655_1617" x="-41.1862" y="-41.6328" width="235.169" height="251.358" filterUnits="userSpaceOnUse" color-interpolation-filters="sRGB">
<feFlood flood-opacity="0" result="BackgroundImageFix"/>
<feGaussianBlur in="BackgroundImageFix" stdDeviation="21"/>
<feComposite in2="SourceAlpha" operator="in" result="effect1_backgroundBlur_655_1617"/>
<feBlend mode="normal" in="SourceGraphic" in2="effect1_backgroundBlur_655_1617" result="shape"/>
</filter>
<linearGradient id="paint0_linear_655_1617" x1="-45.6918" y1="76.7051" x2="179.218" y2="33.7691" gradientUnits="userSpaceOnUse">
<stop stop-color="#EAECF5" stop-opacity="0.47"/>
<stop offset="1" stop-color="#EAECF5" stop-opacity="0.34"/>
<stop offset="1" stop-color="#EAECF5" stop-opacity="0.47"/>
</linearGradient>
<radialGradient id="paint1_radial_655_1617" cx="0" cy="0" r="1" gradientUnits="userSpaceOnUse" gradientTransform="translate(-45.6918 76.7051) rotate(18.0476) scale(266.731 444.784)">
<stop stop-color="white" stop-opacity="0.7"/>
<stop offset="1" stop-color="white" stop-opacity="0"/>
</radialGradient>
</defs>
</svg>
